<svg width="97" height="76" viewBox="0 0 97 76" fill="none" xmlns="http://www.w3.org/2000/svg">
<rect x="0.571289" y="0.0449219" width="95.6571" height="75.533" rx="10" fill="white"/>
<path d="M49.2854 54.9668C49.0056 54.9668 48.7239 54.907 48.4653 54.789C45.5738 53.4492 42.3609 52.7496 39.0997 52.7496C35.8386 52.7496 32.6256 53.4492 29.7342 54.789C29.464 54.9133 29.1623 54.9739 28.8581 54.9649C28.554 54.9558 28.2576 54.8775 27.9973 54.7373C27.7371 54.5971 27.5218 54.3999 27.3721 54.1645C27.2224 53.9291 27.1434 53.6635 27.1426 53.3932V23.4947C27.1426 23.2409 27.2117 22.9908 27.344 22.7659C27.4763 22.5409 27.6679 22.3477 27.9025 22.2028C34.6003 18.0626 43.5991 18.0626 50.2987 22.2028C50.7734 22.497 51.0569 22.9801 51.0569 23.4947V53.3932C51.0569 53.8105 50.8702 54.2108 50.538 54.5059C50.2058 54.801 49.7552 54.9668 49.2854 54.9668ZM39.0997 49.6024C41.9517 49.6024 44.8055 50.0571 47.514 50.9667V24.3444C44.9799 22.9706 42.0685 22.2437 39.0997 22.2437C36.1309 22.2437 33.2196 22.9706 30.6854 24.3444V50.9667C33.3744 50.0643 36.2252 49.602 39.0997 49.6024Z" fill="#0D9CC8"/>
<path d="M69.6565 54.9668C69.3766 54.9668 69.095 54.907 68.8364 54.789C65.9449 53.4492 62.732 52.7496 59.4708 52.7496C56.2097 52.7496 52.9967 53.4492 50.1053 54.789C49.8351 54.9133 49.5334 54.9739 49.2292 54.9649C48.9251 54.9558 48.6286 54.8775 48.3684 54.7373C48.1082 54.5971 47.8929 54.3999 47.7432 54.1645C47.5935 53.9291 47.5145 53.6635 47.5137 53.3932V23.4947C47.5137 23.2409 47.5828 22.9908 47.7151 22.7659C47.8474 22.5409 48.039 22.3477 48.2736 22.2028C54.9714 18.0626 63.9702 18.0626 70.6698 22.2028C71.1445 22.497 71.428 22.9801 71.428 23.4947V53.3932C71.428 53.8105 71.2413 54.2108 70.9091 54.5059C70.5769 54.801 70.1263 54.9668 69.6565 54.9668ZM59.4708 49.6024C62.3228 49.6024 65.1766 50.0571 67.8851 50.9667V24.3444C65.351 22.9706 62.4396 22.2437 59.4708 22.2437C56.502 22.2437 53.5907 22.9706 51.0565 24.3444V50.9667C53.7455 50.0643 56.5963 49.602 59.4708 49.6024Z" fill="#0D9CC8"/>
</svg>
